<svg viewBox="0 0 1087.47 250.002" height="250.002" width="1087.47" xmlns="http://www.w3.org/2000/svg">
  <path transform="translate(0 248.067)" d="M0-224.073v-23.994H216.72v23.994H181.89v97.524q0,4.257-7.546,6.579a98.9,98.9,0,0,1-17.8,3.483q-10.256,1.161-19.35,1.548t-12.577.387L198.531-1.935,99.459,1.935,90.171-12Q83.205-22.446,73.724-36.765T54.18-66.564Q44.118-82.044,35.217-95.4T20.9-117.454q-5.418-8.708-5.418-9.094,0-3.87,6.579-6.192a85.239,85.239,0,0,1,15.673-3.676q9.094-1.354,17.028-1.742t11.03-.387H81.27v-85.527Zm216.72,0v-23.994H510.84v23.994H479.88v42.57q0,3.87-6.579,6.192a85.239,85.239,0,0,1-15.673,3.676q-9.095,1.354-17.028,1.742t-11.029.387H336.69v18.576q0,5.418.193,13.932t4.451,12.771H441.18q3.1,0,11.03.387t17.028,1.742a85.239,85.239,0,0,1,15.674,3.676q6.579,2.322,6.579,6.192v42.57q0,3.87-6.579,6.192a85.24,85.24,0,0,1-15.674,3.677q-9.094,1.354-17.028,1.741t-11.03.387H390.87v-42.57H350.622q-4.644,2.709-5.418,10.449t-.774,12.771v32.9q0,6.966.387,12.577a29.391,29.391,0,0,0,1.161,7.547H483.75V0H313.47q-8.127,0-19.737-.774a127.76,127.76,0,0,1-23.026-3.676,48.34,48.34,0,0,1-19.157-9.288q-7.74-6.385-7.74-17.608V-84.753q0-9.675,5.805-14.706a32.472,32.472,0,0,1,14.512-6.966,101.3,101.3,0,0,1,17.608-2.322q8.9-.387,15.48-.387V-113q-6.966,0-17.028-.193a122.1,122.1,0,0,1-20.317-2.129,39.374,39.374,0,0,1-17.028-7.16q-6.772-5.225-6.772-15.673V-181.5q0-3.87,6.579-6.192a85.241,85.241,0,0,1,15.674-3.676q9.094-1.354,17.028-1.742t11.03-.387h92.88v-30.573Zm294.12,0v-23.994H739.17v23.994H692.73v97.524q0,4.257-7.547,6.579a98.9,98.9,0,0,1-17.8,3.483q-10.255,1.161-19.35,1.548t-12.578.387L709.371-1.935,610.3,1.935,601.011-12q-6.966-10.449-16.448-24.768t-19.543-29.8Q554.958-82.044,546.057-95.4t-14.319-22.059q-5.418-8.708-5.418-9.094,0-3.87,6.579-6.192a85.241,85.241,0,0,1,15.674-3.676q9.094-1.354,17.028-1.742t11.03-.387h15.48v-85.527ZM774.387-121.131v23.994h-30.96q-3.1,0-11.03-.387T715.37-99.266a85.24,85.24,0,0,1-15.674-3.676q-6.579-2.322-6.579-6.192v-12ZM739.17-224.073v-23.994h348.3v23.994h-19.35V0H967.5V-51.858q-2.322,3.1-8.9,5.031a89.932,89.932,0,0,1-14.706,2.9q-8.127.968-15.286,1.354t-10.642.387H808.83q-3.1,0-11.029-.387t-17.028-1.742A85.239,85.239,0,0,1,765.1-47.988q-6.579-2.322-6.579-6.192v-73.53q0-4.644,8.514-7.16a101.8,101.8,0,0,1,20.318-3.483q11.8-.968,22.059-1.161t13.739-.193H830.5q1.548-2.709,1.548-7.934v-76.432Zm119.97,157.9H967.5v-157.9H932.67v77.013q0,11.223-8.32,17.608a53.634,53.634,0,0,1-20.511,9.288,144.684,144.684,0,0,1-24.381,3.676q-12.191.774-20.318.774Z" data-name="Path 5" id="Path_5"></path>
</svg>
